# xmcd
#
# Track frame offsets: 
#        150
#        27490
#        53717
#        73007
#        92617
#        115340
#        137752
#        156630
#        175152
#        197457
#
# Disc length: 2887 seconds
#
# Revision: 0
# Processed by: cddbd v1.5.1PL0 Copyright (c) Steve Scherf et al.
# Submitted via: ExactAudioCopy v0.90b4
#
DISCID=8a0b450a
DTITLE=The Dramatics - Look Inside
DYEAR=2001
DGENRE=R&B
TTITLE0=Look Inside
TTITLE1=Looks Like Rain
TTITLE2=Got My Pride
TTITLE3=Pushin' Up On Ya
TTITLE4=What Must I Do
TTITLE5=Baby Boo
TTITLE6=Right In The Middle Of Heaven
TTITLE7=Special Lady
TTITLE8=I'm So Alone
TTITLE9=Better Love As Friends
EXTD=
EXTT0=
EXTT1=
EXTT2=
EXTT3=
EXTT4=
EXTT5=
EXTT6=
EXTT7=
EXTT8=
EXTT9=
PLAYORDER=
